#!OML:ASF I:\salsa\salsa 7_09\Patient 1\Session 1\dancermale.ASF
:FULLY-SPECIFIED
:DEGREES
1822
root 3.31237 17.2488 4.87183 -348.06 177.553 -360.145
lowerback -2.51697 -4.31652 4.42051
upperback -1.29076 -5.81292 0.473685
thorax -0.31192 -2.91544 -2.08207
lowerneck -3.85454 6.86329 6.02492
upperneck 20.0913 11.6435 -6.96915
head 7.55018 5.94378 -2.26634
rclavicle -5.87657e-015 1.11319e-014
rhumerus -42.2388 19.7737 -76.5925
rradius 91.8939
rwrist 55.3303
rhand -6.17196 -15.2621
rfingers 7.12502
rthumb 19.667 -44.2873
lclavicle -5.87657e-015 1.11319e-014
lhumerus -9.09353 -33.319 113.335
lradius 62.4976
lwrist 72.2241
lhand -4.29047 55.2459
lfingers 7.12502
lthumb 21.475 804.076
rfemur -30.9752 -6.96978 24.145
rtibia 20.7908
rfoot -7.47868 -21.7763
rtoes 14.1342
lfemur -11.3538 2.77108 -23.5469
ltibia 25.1397
lfoot 336.258 8.93753
ltoes -12.3741
1823
root 3.31607 17.2368 5.05585 -348.088 177.531 -360.147
lowerback -2.40239 -4.12533 4.42315
upperback -1.10607 -5.56514 0.313468
thorax -0.184833 -2.79039 -2.24504
lowerneck -3.972 6.73155 5.80308
upperneck 19.7993 11.3681 -6.81027
head 7.43303 5.79559 -2.20637
rclavicle 2.82461e-014 -1.26725e-014
rhumerus -42.22 20.2902 -79.255
rradius 90.1709
rwrist 55.2354
rhand -7.63433 -15.2155
rfingers 7.12502
rthumb 18.2607 -44.3784
lclavicle 2.82461e-014 -1.26725e-014
lhumerus -7.23007 -32.2947 113.552
lradius 59.852
lwrist 71.599
lhand -3.93553 55.0131
lfingers 7.12502
lthumb 21.8159 803.803
rfemur -32.404 -6.91315 24.0062
rtibia 22.4447
rfoot -7.11059 -20.9489
rtoes 10.5446
lfemur -12.0012 1.24364 -23.6342
ltibia 25.1661
lfoot 335.808 9.77413
ltoes -12.1925
1824
root 3.3326 17.2245 5.24095 -347.976 177.038 -360.213
lowerback -2.38657 -3.85279 4.15917
upperback -0.922569 -5.20723 0.150549
thorax 0.029455 -2.60705 -2.27114
lowerneck -4.11267 7.05842 5.6191
upperneck 19.4282 11.7838 -6.88539
head 7.36043 5.9611 -2.16154
rclavicle 1.24372e-014 -3.17434e-015
rhumerus -41.877 21.0155 -81.7494
rradius 87.8498
rwrist 55.2127
rhand -9.439 -15.0982
rfingers 7.12502
rthumb 16.5238 -44.4146
lclavicle 1.24372e-014 -3.17434e-015
lhumerus -5.24981 -30.9547 113.557
lradius 57.1797
lwrist 70.5985
lhand -3.35684 54.5616
lfingers 7.12502
lthumb 22.3715 803.286
rfemur -34.2781 -6.35394 23.7354
rtibia 24.7586
rfoot -6.91429 -19.4369
rtoes 4.72244
lfemur -12.8626 0.144252 -23.7543
ltibia 25.4411
lfoot 335.053 10.5732
ltoes -12.2297
1825
root 3.35422 17.2106 5.42823 -347.887 176.45 -360.487
lowerback -2.28097 -3.61962 3.66769
upperback -0.753132 -4.89117 -0.0827462
thorax 0.187894 -2.44625 -2.23506
lowerneck -4.22144 7.49467 5.51307
upperneck 18.9784 12.3325 -6.9765
head 7.27158 6.19375 -2.12432
rclavicle 1.97542e-015 8.94531e-015
rhumerus -41.2619 22.1107 -83.9771
rradius 84.8568
rwrist 55.007
rhand -11.7852 -14.9841
rfingers 7.12502
rthumb 14.264 -44.4742
lclavicle 1.97542e-015 8.94531e-015
lhumerus -3.27795 -29.4907 113.386
lradius 54.6165
lwrist 69.4599
lhand -3.36814 54.0708
lfingers 7.12502
lthumb 22.3606 802.797
rfemur -36.5623 -5.35965 23.0306
rtibia 28.0645
rfoot -7.24752 -17.7449
rtoes 1.24154
lfemur -13.7661 -0.383131 -24.0722
ltibia 25.8352
lfoot 334.407 11.1687
ltoes -12.5375
1826
root 3.38518 17.192 5.61179 -347.945 175.832 -360.932
lowerback -2.04876 -3.42338 2.94212
upperback -0.543417 -4.61401 -0.385216
thorax 0.32431 -2.30519 -2.13237
lowerneck -4.18919 7.99727 5.43221
upperneck 18.3743 12.9544 -7.07585
head 7.11531 6.46762 -2.09659
rclavicle -6.71892e-014 3.97569e-015
rhumerus -40.349 23.4292 -85.9105
rradius 81.3296
rwrist 54.3545
rhand -14.2776 -14.7616
rfingers 7.12502
rthumb 11.8614 -44.4057
lclavicle -6.71892e-014 3.97569e-015
lhumerus -1.36993 -27.8637 113.116
lradius 52.3854
lwrist 68.1598
lhand -3.45584 53.9661
lfingers 7.12502
lthumb 22.2764 802.702
rfemur -38.8532 -3.83696 21.8926
rtibia 31.8896
rfoot -7.65429 -16.827
rtoes 0.388352
lfemur -14.5169 -0.246044 -24.547
ltibia 26.1688
lfoot 334.197 11.4414
ltoes -12.5169
1827
root 3.42809 17.1674 5.78758 -348.201 175.219 -361.507
lowerback -1.65628 -3.30593 1.98431
upperback -0.339618 -4.43146 -0.689563
thorax 0.373238 -2.2122 -1.8928
lowerneck -3.62445 8.333 5.54486
upperneck 17.2201 13.3466 -7.59745
head 6.7158 6.63753 -2.29151
rclavicle -2.35808e-014 3.57812e-015
rhumerus -39.277 24.8932 -87.6885
rradius 77.4717
rwrist 53.1581
rhand -16.3684 -14.6916
rfingers 7.12502
rthumb 9.84476 -44.4415
lclavicle -2.35808e-014 3.57812e-015
lhumerus 0.368477 -25.8852 112.835
lradius 50.5708
lwrist 66.8514
lhand -3.32694 54.1934
lfingers 7.12502
lthumb 22.4002 802.915
rfemur -40.9154 -2.57852 20.7976
rtibia 36.6193
rfoot -8.36829 -16.1409
rtoes 4.17462
lfemur -15.0093 0.104239 -25.1031
ltibia 26.3604
lfoot 334.365 11.4799
ltoes -12.3264
1828
root 3.48287 17.1419 5.95353 -348.562 174.713 -362.138
lowerback -1.25402 -3.28723 1.01641
upperback -0.135101 -4.38029 -1.02856
thorax 0.406267 -2.18361 -1.68398
lowerneck -3.32513 8.87839 5.54
upperneck 16.622 14.0615 -7.76638
head 6.53715 6.97624 -2.3051
rclavicle -4.77083e-014 6.16232e-015
rhumerus -38.0792 26.0591 -89.1972
rradius 73.0526
rwrist 53.2156
rhand -19.0428 -13.9424
rfingers 7.12502
rthumb 7.2638 -43.7977
lclavicle -4.77083e-014 6.16232e-015
lhumerus 1.9526 -23.645 112.417
lradius 49.1229
lwrist 65.4679
lhand -3.05109 54.3845
lfingers 7.12502
lthumb 22.6649 803.074
rfemur -42.6289 -1.34738 19.5809
rtibia 41.8082
rfoot -9.91654 -16.461
rtoes 7.91322
lfemur -15.3709 0.246598 -25.6348
ltibia 26.5394
lfoot 334.709 11.3946
ltoes -12.0155
1829
root 3.54943 17.12 6.10821 -348.915 174.534 -362.686
lowerback -0.927459 -3.32305 0.398722
upperback 0.0616171 -4.40317 -1.51292
thorax 0.432709 -2.18897 -1.82266
lowerneck -3.42002 9.58703 5.59787
upperneck 16.6408 14.9821 -7.42599
head 6.60574 7.43351 -2.11738
rclavicle 1.41137e-014 1.74931e-014
rhumerus -37.2217 26.9129 -90.8143
rradius 68.8495
rwrist 53.2681
rhand -21.0069 -13.765
rfingers 7.12502
rthumb 5.36767 -43.6771
lclavicle 1.41137e-014 1.74931e-014
lhumerus 3.28579 -21.6513 111.706
lradius 48.0047
lwrist 64.1321
lhand -2.75599 54.2359
lfingers 7.12502
lthumb 22.9481 802.89
rfemur -44.013 -0.0987814 18.3808
rtibia 46.9264
rfoot -9.39809 -16.3069
rtoes 5.2193
lfemur -16.5837 0.338676 -25.9741
ltibia 28.3149
lfoot 334.436 11.0687
ltoes -11.3055
1830
root 3.62598 17.1021 6.25208 -349.151 174.714 -362.862
lowerback -0.58216 -3.34119 0.336326
upperback 0.124023 -4.41129 -1.9748
thorax 0.271533 -2.18727 -2.23959
lowerneck -2.94973 10.3487 6.19011
upperneck 16.2475 15.9969 -7.5129
head 6.52697 7.96273 -2.17173
rclavicle -1.33186e-014 3.18055e-015
rhumerus -37.0025 27.3719 -92.3538
rradius 65.0806
rwrist 53.6304
rhand -22.1647 -13.4883
rfingers 7.12502
rthumb 4.24977 -43.4256
lclavicle -1.33186e-014 3.18055e-015
lhumerus 4.26278 -20.5314 110.643
lradius 47.2624
lwrist 63.701
lhand -2.70706 53.9193
lfingers 7.12502
lthumb 22.9951 802.568
rfemur -45.1064 1.21443 17.5058
rtibia 51.9495
rfoot -10.086 -16.0679
rtoes 7.50822
lfemur -18.1055 0.336522 -25.8082
ltibia 30.6073
lfoot 333.934 10.7233
ltoes -10.8144
1831
root 3.70401 17.0855 6.38422 -349.194 175.175 -362.655
lowerback -0.3242 -3.35769 0.721274
upperback 0.0765408 -4.43179 -2.2188
thorax 0.0291056 -2.19717 -2.684
lowerneck -2.74514 10.9679 6.49443
upperneck 16.1707 16.8519 -7.43296
head 6.5506 8.40272 -2.12255
rclavicle -4.6118e-014 -1.19271e-015
rhumerus -37.2578 27.7168 -93.4668
rradius 61.765
rwrist 54.8702
rhand -22.4507 -12.5565
rfingers 7.12502
rthumb 3.97357 -42.4992
lclavicle -4.6118e-014 -1.19271e-015
lhumerus 5.11417 -20.1994 109.349
lradius 46.7638
lwrist 64.2687
lhand -3.07301 53.5982
lfingers 7.12502
lthumb 22.6439 802.29
rfemur -46.0285 2.44206 16.9674
rtibia 56.7508
rfoot -10.6062 -15.6836
rtoes 9.28659
lfemur -19.772 0.238227 -25.1741
ltibia 32.9606
lfoot 333.294 10.6701
ltoes -11.4356
1832
root 3.78552 17.0666 6.50013 -349.223 175.657 -362.408
lowerback -0.16296 -3.3213 1.09825
upperback 0.0345739 -4.384 -2.35012
thorax -0.140363 -2.17501 -3.01625
lowerneck -2.49484 11.5491 6.65323
upperneck 15.9798 17.6879 -7.50905
head 6.53175 8.82055 -2.10684
rclavicle 7.05686e-015 5.80451e-014
rhumerus -38.0284 28.4792 -94.4179
rradius 59.1756
rwrist 55.6789
rhand -21.4969 -12.0184
rfingers 7.12502
rthumb 4.89456 -41.9418
lclavicle 7.05686e-015 5.80451e-014
lhumerus 5.92945 -18.8622 108.823
lradius 45.8555
lwrist 63.5975
lhand -3.03935 53.3724
lfingers 7.12502
lthumb 22.6762 802.06
rfemur -46.6437 3.61467 16.3671
rtibia 61.2053
rfoot -10.7557 -15.3237
rtoes 10.9229
lfemur -20.9546 0.253253 -24.4896
ltibia 34.5159
lfoot 332.894 10.8274
ltoes -13.4296
1833
root 3.88474 17.0464 6.59965 -349.31 175.942 -362.298
lowerback -0.0940607 -3.16689 1.02947
upperback 0.0340061 -4.17574 -2.39406
thorax -0.165207 -2.07007 -3.02034
lowerneck -2.0556 12.1239 6.72832
upperneck 15.5572 18.5373 -7.77143
head 6.42029 9.24027 -2.15444
rclavicle 1.77912e-014 6.36111e-015
rhumerus -39.0512 29.2608 -94.9087
rradius 56.7273
rwrist 57.544
rhand -22.2419 -10.3477
rfingers 7.12502
rthumb 4.1752 -40.2865
lclavicle 1.77912e-014 6.36111e-015
lhumerus 6.69144 -15.0566 109.876
lradius 44.5877
lwrist 60.3568
lhand -2.28244 54.3684
lfingers 7.12502
lthumb 23.4025 802.965
rfemur -46.8242 5.04532 15.5099
rtibia 65.162
rfoot -10.7785 -14.9608
rtoes 14.3432
lfemur -21.4725 0.535619 -23.9133
ltibia 35.0346
lfoot 332.961 10.8597
ltoes -15.6099
1834
root 3.98528 17.025 6.69128 -349.254 176.475 -362.333
lowerback -0.252349 -3.08502 0.7785
upperback 0.0432695 -4.06494 -2.33182
thorax -0.0383486 -2.01287 -2.8273
lowerneck -1.8888 12.6464 6.55805
upperneck 15.3739 19.3351 -7.9318
head 6.39652 9.61983 -2.11668
rclavicle 4.79071e-014 -6.36111e-015
rhumerus -40.6808 30.8696 -95.7694
rradius 55.7224
rwrist 55.4783
rhand -20.9072 -10.1442
rfingers 7.12502
rthumb 5.4639 -40.0538
lclavicle 4.79071e-014 -6.36111e-015
lhumerus 7.34239 -13.9286 109.549
lradius 44.0611
lwrist 59.2027
lhand -0.648765 54.3794
lfingers 7.12502
lthumb 24.9688 802.768
rfemur -46.7624 6.20927 14.4169
rtibia 68.5508
rfoot -10.3374 -14.4909
rtoes 17.0666
lfemur -21.9969 0.27605 -23.4911
ltibia 35.2427
lfoot 333.382 10.5865
ltoes -16.239
1835
root 4.08879 17.0055 6.77315 -349.169 177.149 -362.365
lowerback -0.449273 -3.03222 0.559346
upperback 0.0135863 -3.99389 -2.24145
thorax 0.066872 -1.97688 -2.62345
lowerneck -1.94225 13.0284 6.50357
upperneck 15.5146 19.9765 -8.07483
head 6.51061 9.92219 -2.07555
rclavicle -6.95746e-015 -1.35174e-014
rhumerus -42.4847 31.9359 -96.2327
rradius 54.5959
rwrist 55.9218
rhand -22.084 -8.67466
rfingers 7.12502
rthumb 4.32768 -38.6104
lclavicle -6.95746e-015 -1.35174e-014
lhumerus 7.83545 -12.6028 109.33
lradius 43.892
lwrist 57.9772
lhand 0.941017 55.5149
lfingers 7.12502
lthumb 26.4914 803.683
rfemur -46.3446 7.24594 13.2793
rtibia 71.2612
rfoot -9.42701 -13.9173
rtoes 19.0391
lfemur -22.5412 -0.569336 -23.0521
ltibia 35.4723
lfoot 333.834 10.4736
ltoes -16.202
1836
root 4.21083 16.9921 6.84054 -349.207 177.811 -362.338
lowerback -0.557013 -2.93424 0.279105
upperback -0.016741 -3.86304 -2.12145
thorax 0.129541 -1.91182 -2.34968
lowerneck -1.74941 13.3107 6.45727
upperneck 15.4156 20.4779 -8.33405
head 6.5094 10.1658 -2.11087
rclavicle 4.47266e-014 1.27222e-014
rhumerus -44.5844 32.8638 -96.7251
rradius 53.8054
rwrist 56.6469
rhand -19.0393 -11.2702
rfingers 7.12502
rthumb 7.26719 -41.1254
lclavicle 4.47266e-014 1.27222e-014
lhumerus 8.00515 -11.7667 109.076
lradius 43.9993
lwrist 57.6571
lhand 1.32922 56.0636
lfingers 7.12502
lthumb 26.8629 804.175
rfemur -45.3463 8.50981 12.2255
rtibia 73.192
rfoot -8.28767 -13.5077
rtoes 22.6381
lfemur -22.8377 -1.56601 -22.4581
ltibia 35.6279
lfoot 334.155 10.5997
ltoes -16.65
